<svg style="position: absolute; width: 0; height: 0; overflow: hidden;" version="1.1" xmlns="http://www.w3.org/2000/svg">
  <defs>
    <symbol id="ico-caution" viewBox="0 0 20 20">
      <path id="中マド_2" data-name="中マド 2" d="M10,20A10,10,0,0,1,6.108.787a10,10,0,0,1,7.785,18.428A9.925,9.925,0,0,1,10,20Zm.013-6.577a1.075,1.075,0,0,0-.8.334,1.186,1.186,0,0,0,0,1.636,1.127,1.127,0,0,0,1.6,0,1.186,1.186,0,0,0,0-1.636A1.077,1.077,0,0,0,10.014,13.423ZM10,5.061a1.181,1.181,0,0,0-.855.277.975.975,0,0,0-.286.732A4.672,4.672,0,0,0,8.985,7.1l.082.355.2.881c.107.46.2,1.006.286,1.621a16.805,16.805,0,0,1,.125,2.2.189.189,0,0,0,.091.172.423.423,0,0,0,.229.057c.221,0,.333-.077.333-.229a16.8,16.8,0,0,1,.125-2.2c.084-.621.177-1.167.278-1.621.114-.51.2-.894.278-1.236a4.672,4.672,0,0,0,.125-1.032.975.975,0,0,0-.286-.732A1.186,1.186,0,0,0,10,5.061Z"/>
    </symbol>

    <symbol id="ico-fair" viewBox="0 0 36 36">
      <g id="グループ_1210" data-name="グループ 1210" transform="translate(-758.965 -1190)">
        <circle id="楕円形_14" data-name="楕円形 14" cx="18" cy="18" r="18" transform="translate(758.965 1190)" fill="#b56349"/>
        <path id="合体_5" data-name="合体 5" d="M13.994,19.737a6.564,6.564,0,0,1-3.492-2.6A23.877,23.877,0,0,0,8.438,13.9a4.636,4.636,0,0,0-2.044-1.22,2.6,2.6,0,0,0-2.405.491l.062,6.013H2.5L.352,11.88c-.035-.109-.067-.218-.1-.328V11.54A8.191,8.191,0,0,1,.065,8.57,8.458,8.458,0,0,1,2.687,3.716c.113-.1.345-.3.345-.3,7.635,8.553,9.879,10.925,10.992,11.181a2.48,2.48,0,0,0,2.255-.231,1.956,1.956,0,0,0,.876-2.029l7,4.562a1.351,1.351,0,0,1,.6,1.133,1.3,1.3,0,0,1-1.18,1.33l-8.323.553A4.608,4.608,0,0,1,13.994,19.737Zm2.038-13.7c3.091-.821,3.53-1.475,4.05-6.038.571,4.56,1.012,5.209,4.109,6-3.088.817-3.528,1.473-4.046,6.041C19.567,7.479,19.135,6.831,16.032,6.038Z" transform="translate(764.963 1195.956)" fill="#fff"/>
      </g>
    </symbol>

    <symbol id="ico-map" viewBox="0 0 14.915 26">
      <path id="中マド_1" data-name="中マド 1" d="M7.458,26v0L.951,12.148A8.765,8.765,0,0,1,0,8.158,8.5,8.5,0,0,1,2.184,2.391,7.1,7.1,0,0,1,7.458,0a7.1,7.1,0,0,1,5.273,2.391,8.5,8.5,0,0,1,2.184,5.768,8.737,8.737,0,0,1-1.023,4.123L7.458,26Zm0-20.9a2.939,2.939,0,0,0-2.8,3.059,2.94,2.94,0,0,0,2.8,3.059,2.94,2.94,0,0,0,2.8-3.059A2.939,2.939,0,0,0,7.458,5.1Z"/>
    </symbol>

    <symbol id="ico-web" viewBox="0 0 36 36">
      <g id="グループ_1209" data-name="グループ 1209" transform="translate(-1105.464 -1191)">
        <circle id="楕円形_15" data-name="楕円形 15" cx="18" cy="18" r="18" transform="translate(1105.464 1191)" fill="#b56349"/>
        <path id="合体_6" data-name="合体 6" d="M11.553,23.107H0V0H12.671V23.107Zm-.373-2.982V2.615H9.689v.112a1,1,0,0,1-1,1H3.981a1,1,0,0,1-1-1V2.615H1.49v17.51Z" transform="translate(1116.914 1197.336)" fill="#fff"/>
      </g>
    </symbol>

    <symbol id="ico-fair02" viewBox="0 0 36 36">
      <defs>
        <clipPath id="ico-fai02__clip-path">
          <rect id="長方形_114" data-name="長方形 114" width="21.512" height="25.938" fill="#fff"/>
        </clipPath>
      </defs>
      <g id="グループ_217" data-name="グループ 217" transform="translate(-758.964 -1190)">
        <circle id="楕円形_14" data-name="楕円形 14" cx="18" cy="18" r="18" transform="translate(758.964 1190)" fill="#b56349"/>
        <g id="グループ_1285" data-name="グループ 1285" transform="translate(766.464 1193.472)">
          <path id="パス_310" data-name="パス 310" d="M7.239,73.821,0,89.491H21.513l-7.239-15.67Z" transform="translate(0 -64.92)" fill="#fff"/>
          <g id="グループ_1284" data-name="グループ 1284">
            <g id="グループ_1283" data-name="グループ 1283" clip-path="url(#clip-path)">
              <path id="パス_311" data-name="パス 311" d="M50.127,3.066l-1.1.637L47.1,1.226A.342.342,0,0,1,47.2.72L48.364.046A.342.342,0,0,1,48.847.2Z" transform="translate(-41.355 0)" fill="#fff"/>
              <path id="パス_312" data-name="パス 312" d="M105.664,3.066l1.1.637,1.926-2.477a.342.342,0,0,0-.1-.506L107.427.046a.342.342,0,0,0-.483.157Z" transform="translate(-92.923 0)" fill="#fff"/>
              <path id="パス_313" data-name="パス 313" d="M0,162.112c1.793,0,1.793,1.367,3.585,1.367s1.793-1.367,3.585-1.367,1.793,1.367,3.585,1.367,1.793-1.367,3.585-1.367,1.793,1.367,3.586,1.367,1.793-1.367,3.586-1.367L9.921,156.4Z" transform="translate(0 -137.542)" fill="#fff"/>
              <path id="パス_314" data-name="パス 314" d="M57.847,30.29,54.33,31.5,50.813,30.29l-1.231-4.683a1.025,1.025,0,0,1,.992-1.286h7.512a1.025,1.025,0,0,1,.992,1.286Z" transform="translate(-43.574 -21.388)" fill="#fff"/>
            </g>
          </g>
        </g>
      </g>
    </symbol>

    <symbol id="ico-down" viewBox="0 0 22.673 31.676">
      <g id="グループ_1340" data-name="グループ 1340" transform="translate(0.336)">
        <path id="パス_248" data-name="パス 248" d="M0,22,10,11,0,0" transform="translate(22 21) rotate(90)" fill="none" stroke-width="1"/>
        <line id="シェイプ_6" data-name="シェイプ 6" y2="24" transform="translate(11)" fill="none" stroke-width="1"/>
      </g>
    </symbol>

    <symbol id="ico-train" viewBox="0 0 60 46">
      <defs>
        <clipPath id="ico-train__clip-path">
          <rect id="長方形_120" data-name="長方形 120" width="37" height="9" transform="translate(1112.464 1220.984)" fill="#fff"/>
        </clipPath>
      </defs>
      <rect id="長方形_127" data-name="長方形 127" width="60" height="46" fill="none"/>
      <g id="グループ_191" data-name="グループ 191" transform="translate(-1100.464 -1184.984)">
        <g id="マスクグループ_1" data-name="マスクグループ 1" clip-path="url(#clip-path)">
          <path id="パス_284" data-name="パス 284" d="M0,0V17" transform="translate(1124.749 1218.484) rotate(40)" fill="none" stroke="#a88e79" stroke-width="3"/>
          <path id="パス_285" data-name="パス 285" d="M0,17V0" transform="translate(1146.749 1231.507) rotate(140)" fill="none" stroke="#a88e79" stroke-width="3"/>
          <path id="パス_286" data-name="パス 286" d="M1116.09,1210.446h23" transform="translate(2.373 15.539)" fill="none" stroke="#a88e79" stroke-width="3"/>
        </g>
        <rect id="長方形_116" data-name="長方形 116" width="34" height="34" transform="translate(1113.464 1186.984)" fill="#a88e79"/>
        <rect id="長方形_81" data-name="長方形 81" width="26" height="15" transform="translate(1117.464 1190.984)" fill="#fff"/>
        <circle id="楕円形_30" data-name="楕円形 30" cx="2.5" cy="2.5" r="2.5" transform="translate(1117.464 1210.857)" fill="#fff"/>
        <circle id="楕円形_31" data-name="楕円形 31" cx="2.5" cy="2.5" r="2.5" transform="translate(1138.464 1210.857)" fill="#fff"/>
      </g>
    </symbol>

    <symbol id="ico-bus" viewBox="0 0 60 46">
      <rect id="長方形_126" data-name="長方形 126" width="60" height="46" fill="none"/>
      <g id="グループ_191" data-name="グループ 191" transform="translate(-1106.464 -1178.986)">
        <rect id="長方形_116" data-name="長方形 116" width="47" height="24.001" transform="translate(1113.464 1187.985)" fill="#a88e79"/>
        <rect id="長方形_81" data-name="長方形 81" width="8" height="9" transform="translate(1116.464 1191.113)" fill="#fff"/>
        <rect id="長方形_121" data-name="長方形 121" width="8" height="9" transform="translate(1127.464 1191.113)" fill="#fff"/>
        <rect id="長方形_122" data-name="長方形 122" width="8" height="9" transform="translate(1138.464 1191.113)" fill="#fff"/>
        <rect id="長方形_123" data-name="長方形 123" width="8" height="9" transform="translate(1149.464 1190.985)" fill="#fff"/>
        <circle id="楕円形_30" data-name="楕円形 30" cx="4.5" cy="4.5" r="4.5" transform="translate(1116.464 1207.113)" fill="#a88e79"/>
        <circle id="楕円形_32" data-name="楕円形 32" cx="4.5" cy="4.5" r="4.5" transform="translate(1148.464 1207.113)" fill="#a88e79"/>
      </g>
    </symbol>

    <symbol id="ico-car" viewBox="0 0 60 46">
      <rect id="長方形_128" data-name="長方形 128" width="60" height="46" fill="none"/>
      <g id="グループ_191" data-name="グループ 191" transform="translate(-1103.464 -1179.984)">
        <g id="パス_287" data-name="パス 287" transform="translate(1115.464 1186.984)" fill="#fff">
          <path d="M 32.82017135620117 16 L 3.236064910888672 16 L 2.102598428726196 13.73306655883789 L 4.616827011108398 2 L 31.37416839599609 2 L 33.89062118530273 14.06295585632324 L 32.82017135620117 16 Z" stroke="none"/>
          <path d="M 6.233663558959961 4 L 4.205205917358398 13.46614074707031 L 4.472135543823242 14 L 31.64033889770508 14 L 31.7812385559082 13.74503517150879 L 29.74832534790039 4 L 6.233663558959961 4 M 3 0 L 33 0 L 36 14.38088989257812 L 34 18 L 2 18 L 0 14 L 3 0 Z" stroke="none" fill="#a88e79"/>
        </g>
        <rect id="長方形_116" data-name="長方形 116" width="40" height="15" transform="translate(1113.464 1200.984)" fill="#a88e79"/>
        <circle id="楕円形_30" data-name="楕円形 30" cx="2.5" cy="2.5" r="2.5" transform="translate(1117.464 1205.984)" fill="#fff"/>
        <circle id="楕円形_33" data-name="楕円形 33" cx="4" cy="4" r="4" transform="translate(1116.464 1211.984)" fill="#a88e79"/>
        <circle id="楕円形_34" data-name="楕円形 34" cx="4" cy="4" r="4" transform="translate(1142.464 1211.984)" fill="#a88e79"/>
        <circle id="楕円形_31" data-name="楕円形 31" cx="2.5" cy="2.5" r="2.5" transform="translate(1144.464 1205.984)" fill="#fff"/>
        <rect id="長方形_124" data-name="長方形 124" width="7" height="5" transform="translate(1149.464 1198.984)" fill="#a88e79"/>
        <rect id="長方形_125" data-name="長方形 125" width="7" height="5" transform="translate(1110.464 1198.984)" fill="#a88e79"/>
        <path id="パス_288" data-name="パス 288" d="M1127.585,1208.484h14" transform="translate(-1.121 0.5)" fill="none" stroke="#fff" stroke-width="3"/>
      </g>
    </symbol>
  </defs>
</svg>

